<?xml version="1.0" standalone="no"?>
<!DOCTYPE svg PUBLIC "-//W3C//DTD SVG 20010904//EN"
 "http://www.w3.org/TR/2001/REC-SVG-20010904/DTD/svg10.dtd">
<svg version="1.0" xmlns="http://www.w3.org/2000/svg"
 width="260.000000pt" height="260.000000pt" viewBox="0 0 260.000000 260.000000"
 preserveAspectRatio="xMidYMid meet">
<metadata>
Created by potrace 1.14, written by Peter Selinger 2001-2017
</metadata>
<g transform="translate(0.000000,260.000000) scale(0.100000,-0.100000)"
fill="#000000" stroke="none">
<path d="M0 1300 l0 -1300 1300 0 1300 0 0 1300 0 1300 -1300 0 -1300 0 0
-1300z m2180 344 c61 -20 116 -60 151 -110 l29 -43 -77 -40 -77 -41 -30 36
c-52 64 -133 81 -211 45 -102 -47 -157 -164 -124 -262 32 -93 142 -144 236
-108 29 11 93 67 93 81 0 4 -42 8 -93 8 l-93 0 11 73 11 72 182 9 c101 5 185
6 188 3 11 -11 -25 -166 -51 -217 -35 -69 -103 -136 -173 -168 -49 -23 -70
-27 -152 -27 -78 0 -104 4 -145 23 -63 29 -119 83 -153 147 -24 45 -27 60 -27
155 0 99 2 109 32 166 92 177 286 258 473 198z m-665 -23 c48 -22 69 -44 90
-94 28 -67 12 -142 -41 -195 l-35 -35 21 -22 c33 -35 43 -87 30 -152 -16 -74
-75 -135 -152 -157 -59 -16 -418 -33 -418 -20 0 5 23 163 52 352 l52 342 181
0 c153 0 186 -3 220 -19z m-505 -5 c0 -22 -100 -670 -104 -674 -2 -2 -38 -6
-80 -9 -67 -5 -76 -4 -76 11 0 9 14 105 30 213 17 108 29 197 28 198 -2 2 -48
-46 -103 -105 -55 -59 -104 -107 -109 -106 -5 1 -38 47 -72 101 -34 55 -66
101 -71 102 -4 2 -21 -81 -37 -184 -15 -104 -30 -200 -33 -215 -5 -28 -6 -28
-84 -28 -44 0 -79 3 -79 8 0 4 23 161 52 350 l52 342 72 0 72 0 71 -115 c40
-63 76 -117 81 -120 4 -3 61 51 126 120 l118 125 73 0 c55 0 73 -3 73 -14z"/>
<path d="M1256 1491 c-3 -4 -8 -34 -12 -65 l-7 -56 59 0 c75 0 131 16 144 40
16 30 12 68 -9 80 -24 12 -168 14 -175 1z"/>
<path d="M1206 1183 c-4 -26 -10 -59 -13 -72 l-6 -24 93 5 c86 4 95 6 116 32
27 31 30 54 10 82 -12 16 -29 20 -104 22 l-89 4 -7 -49z"/>
</g>
</svg>
