<?xml version="1.0" encoding="utf-8"?>
<!-- Generator: Adobe Illustrator 24.2.3, SVG Export Plug-In . SVG Version: 6.00 Build 0)  -->
<svg version="1.1" xmlns="http://www.w3.org/2000/svg" xmlns:xlink="http://www.w3.org/1999/xlink" x="0px" y="0px"
	 viewBox="0 0 273.8 104.5" style="enable-background:new 0 0 273.8 104.5;" xml:space="preserve">
<style type="text/css">
	.st0{display:none;}
	.st1{display:inline;fill:#5E5E5E;stroke:#FFFFFF;stroke-miterlimit:10;}
	.st2{fill:#FFFFFF;}
	.st3{fill:#D8247C;}
	.st4{fill:#3B1068;}
	.st5{fill:#25A9F0;}
</style>
<g id="Layer_2" class="st0">
	<rect x="-4.8" y="-15.6" class="st1" width="315.1" height="157.7"/>
</g>
<g id="Layer_1_copy_2">
	<g>
		<path class="st2" d="M17.9,16.5h6l6.4,10.7l10.5-10.7h6.3L41.9,46H35l3.2-18.2l-9.4,9.5l-6-9.9L19.6,53h-6.9L17.9,16.5z"/>
		<path class="st2" d="M60.7,16.5h6.8L73.1,46h-6.8l-0.8-4.6H54.3L51.9,46h-7.4L60.7,16.5z M57.6,35.2h6.9l-1.7-9.9L57.6,35.2z"/>
		<path class="st2" d="M77,46l4-23h-7.9l1.2-6.5h22.8L96,23h-8l-4,23H77z"/>
		<path class="st2" d="M102.7,46l4-22.9h-7.9l1.2-6.5h22.8l-1.1,6.5h-8l-4,22.9H102.7z"/>
		<path class="st2" d="M135.7,16.5h11.9c1.6,0,3,0.2,4.2,0.7s2.2,1.1,3,2c0.8,0.8,1.4,1.8,1.7,3c0.3,1.1,0.4,2.4,0.1,3.7
			c-0.2,1.2-0.7,2.3-1.4,3.2c-0.7,0.9-1.5,1.6-2.6,2.2c1,0.7,1.7,1.7,2.1,2.8c0.4,1.1,0.5,2.6,0.2,4.3c-0.5,2.5-1.7,4.4-3.7,5.7
			s-4.7,2-8.1,2h-12.8L135.7,16.5z M139.5,34.1l-1,5.7h5c1.4,0,2.5-0.2,3.2-0.7s1.1-1.1,1.3-2s0-1.6-0.6-2.2
			c-0.6-0.6-1.6-0.8-3.1-0.8H139.5z M141.5,22.6l-0.9,5.2h5.2c1.3,0,2.3-0.2,2.9-0.7c0.6-0.5,0.9-1,1.1-1.7c0.2-0.9,0-1.5-0.5-2.1
			c-0.5-0.5-1.4-0.8-2.6-0.8h-5.2V22.6z"/>
		<path class="st2" d="M170.7,16.5h6.8l5.6,29.5h-6.8l-0.8-4.6h-11.2l-2.4,4.6h-7.4L170.7,16.5z M167.6,35.2h6.9l-1.7-9.9
			L167.6,35.2z"/>
		<path class="st2" d="M190.7,16.5h12.2c1.6,0,3.1,0.3,4.4,0.8s2.5,1.3,3.4,2.3s1.6,2.2,2,3.6s0.4,2.9,0.1,4.6
			c-0.3,1.7-1.1,3.3-2.3,4.7s-2.9,2.6-4.9,3.3l5.2,10.1h-7.9l-4.3-9h-4.4l-1.6,9h-7.1L190.7,16.5z M196.6,22.8l-1.4,7.9h4.8
			c1.5,0,2.7-0.3,3.6-0.9c1-0.6,1.5-1.5,1.8-2.7c0.1-0.6,0.1-1.1,0-1.7c-0.1-0.5-0.3-1-0.7-1.3c-0.3-0.4-0.8-0.7-1.4-0.9
			c-0.6-0.2-1.3-0.3-2.1-0.3h-4.6V22.8z"/>
		<path class="st2" d="M218.2,16.5h12.2c1.6,0,3.1,0.3,4.4,0.8s2.5,1.3,3.4,2.3s1.6,2.2,2,3.6s0.4,2.9,0.1,4.6
			c-0.3,1.7-1.1,3.3-2.3,4.7s-2.9,2.6-4.9,3.3l5.2,10.1h-7.9l-4.3-9h-4.4l-1.6,9H213L218.2,16.5z M224.1,22.8l-1.4,7.9h4.8
			c1.5,0,2.7-0.3,3.6-0.9c1-0.6,1.5-1.5,1.8-2.7c0.1-0.6,0.1-1.1,0-1.7c-0.1-0.5-0.3-1-0.7-1.3c-0.3-0.4-0.8-0.7-1.4-0.9
			c-0.6-0.2-1.3-0.3-2.1-0.3h-4.6V22.8z"/>
		<path class="st2" d="M247.7,32.8l-6.5-16.3h7.2l4,10.3l7.5-10.3h8l-13.3,17.3L251.5,54h-7L247.7,32.8z"/>
	</g>
	<g>
		<polygon class="st3" points="21.5,50.5 100.3,50.5 101.4,49.5 21.5,49.5 		"/>
		<polygon class="st3" points="243.2,49.5 167.7,49.5 167.1,50.5 243,50.5 		"/>
		<polygon class="st3" points="156.1,49.5 115.3,49.5 114.3,50.5 155.8,50.5 		"/>
		<path class="st3" d="M11.1,49.5H6.6c-0.3,0-0.5,0.2-0.5,0.5s0.2,0.5,0.5,0.5h4.3L11.1,49.5z"/>
		<path class="st3" d="M260.3,49.5h-5.7v1h5.7c0.3,0,0.5-0.2,0.5-0.5S260.6,49.5,260.3,49.5z"/>
	</g>
	<g>
		<path id="XMLID_4_" class="st4" d="M192,77c-0.3,0-0.6-0.1-0.8,0c-0.8,0.1-1.5,0.2-2.2,0.2c-0.6,0-1.2-0.1-1.8-0.1
			c-1.8,0.1-3.5,0.2-5.3,0.1c-1.7,0.1-3.4,0-5.1,0c-4.7,0.1-9.4,0.2-14.2,0.3c-3.3,0.2-29.6,2.7-32.9,2.9c-2,0.1-4,0.4-5.9,0.6
			c-1.7,0.2-3.5,0.4-5.2,0.5c-0.6,0.1-1.2,0.1-2,0.2c-1,0.2-2,0.3-2.9,0.5c-0.6,0.1-1.3-0.1-1.7,0c-1.4,0.7-2.7,0.5-4.1,0.7
			c-2.1,0.4-4.3,0.8-6.4,1.2c-1.5,0.3-3,0.6-4.5,0.8C96.7,85,96.2,85,95.9,85c-0.8,0.2-1.7,0.5-2.6,0.7c-1.2,0.2-2.6,0.4-3.9,0.6
			c-1,0.2-2,0.3-3,0.6c-1,0.2-1.9,0.4-2.9,0.6c-0.3,0.1-0.7,0.2-1.1,0.3c-0.8,0.2-1.7,0.2-2.6,0.5c-0.5,0.1-1.1,0.3-1.8,0
			c0.6-0.3,0.9-0.5,1.4-0.8c0,0,0-0.2,0.1-0.4c0.3,0.2,0.6,0.4,0.7,0.6c0.3-0.4,0.4-0.7,0.6-1.2c-0.3,0-0.6-0.1-0.8-0.1
			c0.4-0.2,0.8-0.8,1-0.1c0.3,0.4,0.3,0.7,0.4,1c1.1-0.2,0.7-1.1,1.2-1.6c0.1,0.4,0.2,0.7,0.4,0.9c0.3-0.3,0.4-0.7,0.7-0.7
			c0.3-0.3,0.8-0.2,1.2-0.4c1.1-0.1,2-0.4,3-0.6c-0.1-0.2-0.2-0.4-0.3-0.5c0.8-0.5,1.3,0,1.7,0.4c0.2-0.6,0.3-1.2,1-0.5
			c0.1,0,0.3,0.1,0.5,0.1c0-0.2,0-0.3,0-0.6c0.4,0,0.9-0.1,1.2,0.1c0.5,0.3,0.9-0.1,1.2-0.5c0.2,0,0.4-0.1,0.5-0.2
			c0.1,0.2,0.1,0.3,0.2,0.7c0.3-0.3,0.7-0.5,0.9-0.7c0.5,0,0.9,0.1,1.4,0.3c0.2-0.8,0.2-0.8,0.6-0.5c0.3-0.2,0.4-0.4,0.7-0.4
			c0.6-0.1,1.1-0.2,1.6-0.2c0.6,0,0.9,0.1,1.4,0.2c-0.1,0,0-0.1-0.1-0.2c0.3-0.2,0.4-0.5,0.6-0.6c0.8-0.1,1.7-0.2,2.6-0.4
			c0.3,0,0.5,0.1,0.8,0.1c0.3-0.2,0.4-0.3,0.7-0.4c0.9-0.2,2-0.5,2.9-0.6c0.6,0,1.6-0.7,1.8,0.2c0.3-0.2,0.6-0.5,0.9-0.7
			c0.1-0.1,0.3,0.4,0.6,0.5c0.2-0.1,0.5-0.3,0.8-0.5c0.1-0.1,0.4-0.1,0.4,0c0.4,0.5,1.1-0.1,1.6,0.2c0.1-0.3,0-0.4-0.1-0.6
			c0.6,0,1.2-0.6,1.6,0.2c0,0,0.4,0,0.5,0c0.2-0.8,1-0.6,1.5-0.8c0.3,0,1.1-0.4,0.9,0.3c0,0,0.3,0.1,0.4,0.1
			c0.2-0.2,0.2-0.5,0.2-0.5c1,0.1,2.1-0.8,2.9-0.1c0.4-0.2,0.8-0.3,1.1-0.4c0.9-0.1,1.7-0.1,2.5-0.3c1.5-0.2,2.8-0.3,4.2-0.4
			c0.6-0.1,1.1-0.3,1.6-0.4c0.8,0.1,24.6-2.2,25.3-2.4c0.4-0.1,0.9,0.2,1.2,0.2c0.8-0.1,1.7-0.4,2.4-0.1c0.3,0.1,0.7-0.1,1.2-0.3
			c0.6,0.3,0.6,0.4,1.5-0.1c0.1-0.1,0.3-0.1,0.4-0.1c1,0.4,2.1,0.2,3.2,0.1c1.5,0,3.1-0.2,4.6-0.3c0.5-0.1,1.1,0,1.5,0
			c0.9,0,1.8-0.2,2.6-0.1c3.2-0.1,6.5-0.1,9.7,0.1c2.3,0.1,4.6,0.3,6.9,0.5c0.8,0.1,0.8,0.4,0.4,0.9C192.4,76.4,192.2,76.7,192,77
			L192,77z M78.1,87c0.5-0.1,0.9-0.2,1.4-0.4c0,0,0,0.1,0.1,0.2c-0.5,0.1-0.9,0.3-1.5,0.4C78.2,87.1,78.1,87.1,78.1,87z M87.1,85.2
			c-1,0.2-1.9,0.5-2.9,0.6c0,0-0.1-0.1-0.1-0.2c0.9-0.3,2-0.4,2.9-0.6C87.1,85.1,87.1,85.1,87.1,85.2z"/>
		<g>
			<g>
				<path class="st4" d="M113.7,48.7c-1.1,0.8-2.1,1.7-3.2,2.5c-0.7,0.5-1.5,0.9-2.1,1.4c-0.8,0.6-1.7,1-2.5,1.8
					c-0.7,0.8-5.8,5.5-6.5,6.2c-1.1,1.1-4.1,4.4-4.5,4.9c-0.6,0.8-1.2,1.6-1.8,2.3c-0.2,0.3-0.4,0.5-0.7,0.8c-1,1.5-2.1,3.1-3.2,4.7
					c-0.5,0.8-1,1.7-1.6,2.7c1.4-0.1,2.5-0.9,3.5-1.5c4-2.3,7.8-4.9,10.8-9c-1.5,0.4-2.4-0.4-3.5-1.5c0.8-0.5,1.5-1.1,2.3-1.5
					c1.8-0.9,3.6-1.8,5.4-2.6c0.4-0.2,1-0.2,1.3,0c0.5,0.4,1.2,0.7,1.5,1.4s0.3,0.9-0.3,1.3c-0.1,0.1-0.2,0.4-0.1,0.5
					c0.3,0.4,0.4,0.8,0.2,1.2c-0.2,0.4-0.5,0.8-0.8,1.2c-0.4,0.4-0.8,0.9-1,1.6c-0.2,0.6-1.7,5-1.9,6.6c-0.1,1-0.5,1.9-0.7,2.8
					c-0.1,0.4-0.2,0.9-0.3,1.3c-0.1,0.4-0.3,0.9-0.5,1.4c-0.2,0.4-0.5,0.8-0.8,1.2c-0.3,0.6-0.6,1.2-1,1.9c-0.1-0.1-0.1-0.1-0.2-0.2
					c-0.1,0.1,0,0.2-0.1,0.2c-0.2,0.3-0.1,0.9-0.7,0.7c0,0-0.2,0.3-0.2,0.4h-0.1c0-0.6,0-1.2,0.1-1.7c0.2-1.6,0.5-3.1,0.8-4.7
					c0.2-1.1,0.3-2.1,0.5-3.2c0.1-0.7,0.2-1.3,0.3-2c-0.4,0.3-0.7,0.5-1,0.8c-0.8,0.6-9.1,5.6-9.8,6.1c-0.5,0.3-1.2,0.5-1.7,0.7
					c-0.3,0.1-0.7,0.1-1,0.3c-0.5,0.2-0.9,0.6-1.3,0.8c-1.7,0.6-3.1-0.2-3.7-2c-0.1-0.2-0.3-0.4-0.4-0.6c0-0.1,0-0.2,0-0.2
					c0.2-0.4,0.7-0.9,0.7-1.2c0-0.5,0.2-0.9,0.5-1.3c0.2-0.3,0.3-0.6,0.5-0.9c0.5-1.1,6.1-10.1,6.4-10.5c0.5-0.7,1-1.3,1.5-2
					c0.4-0.5,0.9-1.1,1.4-1.6c0.2-0.3,9.4-9.1,10.2-9.7c0.3-0.3,5.9-4.4,6.4-4.8c0.8-0.6,1.7-1.3,2.5-1.9c0.3-0.2,0.6-0.4,0.9-0.6
					h0.1c0.4,0.1,0.9,0.2,1.2,0.4c0.7,0.5,1.2,1.2,1.7,1.7c0,0.3,0,0.6,0,1C116,47,114.8,47.9,113.7,48.7z"/>
				<path class="st4" d="M124.7,62.2c0,0-7.6,6.4-8.7,7.4c-0.6,0.5-1.4,0.9-2.1,0.8c-0.8,0-1.4-0.9-1.2-1.7c0.4-1.7,1.4-3.3,2.4-4.8
					c0.4-0.7,1.2-2.2,1.6-3c-0.6,0-1.4,0.1-1.8,0.8c-0.8,1.6-3.1,5.8-4.2,7.4c-0.2,0.3-0.3,0.5-0.5,0.8c-1.2,1.8-3.7,1.7-3.7,1.7
					s-0.1,0-0.2,0.1c0.4-0.6,0.7-1.3,1-1.9c0.8-1.8,3.2-6.3,4.2-8.2c-0.8-0.1-1.4-0.3-1.8-1c-0.2-0.2-0.3-0.4-0.2-0.7
					c0-0.2,0.4-0.5,0.5-0.5c3.3-0.4,6.5-1,9.8-2c1.2-0.4,2.3-0.2,3.1,0.6c-0.2,0.2-0.4,0.5-0.6,0.6c-0.9,0.7-1.5,1.4-2,2.3
					c-0.7,1.2-2.3,3.8-3,4.9c-0.1,0.1-0.2,0.3-0.1,0.4c0.2,0.1,4.5-2.6,6.5-4C123.9,62.4,124.3,62.4,124.7,62.2z"/>
				<path class="st4" d="M139,62.1c0,0.2,0,0.3,0,0.4c0,0-4.3,3.7-5.7,3.5c-1-0.1-1.2-1.3-1.2-1.9c-1.2,1.3-2.4,2.4-3.1,2.9
					c-0.6,0.4-1.2,0.9-1.8,1.3c-0.8,0.4-1.7,0.6-2.6,0.5c-1.1-0.1-2-0.5-2.8-1.3c-0.2-0.2-0.3-0.5-0.4-0.7c-0.5-2.4,4.2-6.9,5.5-8.1
					c0.8-0.7,3.4-2.2,5.6-2.2c0.8,0,0.9,0.8,1.3,1.3c0.1,0.1,0.1,0.1,0.1,0.1c0.3,0.3,0.9,0.9,0.9,2c0,0.2,0,0.5-0.1,0.7
					c0,0,0,0.1-0.1,0.1c-0.3,1.4-0.8,4.1-0.7,4.3C134,65.3,139,62.1,139,62.1z M131.7,59.1c0,0-1.6-0.2-2.8,0.7s-7,6.5-3.6,6.1
					C126.8,65.7,131.6,60.4,131.7,59.1z"/>
				<path class="st4" d="M151.1,61.7c-0.2,0.1-0.4,0.1-0.5,0.2c-0.7,0.9-1.6,1.7-2.2,2c-0.8,0.5-4.4,1.8-6.5,1.9c-0.4,0-1,0-1.2-0.1
					c0,0-0.1,0-0.2,0c-0.3,0-0.9,0.2-1.7,1.6c-0.2,0.3-0.8,1.3-1.6,2.4c-1.3,2-2.8,4.4-3.1,5c0,0,0,0-0.1,0.1c0,0.1-0.1,0.3-0.2,0.3
					l-0.1,0.1c-0.2,0.2-0.4,0.4-0.7,0.4l0,0c-0.4,0-0.7,0-1.3-0.2c-0.3-0.1-0.7-0.3-1-0.5c-0.5-0.4-0.6-1-0.3-1.5
					c0.3-0.4,1.6-2.6,3.2-5.1c2.2-3.4,4.7-7.2,5.1-7.7c0.4-0.5,0.8-1.2,1.2-1.8c0.2-0.3,0.4-0.6,0.6-0.9c0.5-0.8,0.7-1.2,1.2-2.1
					c0,0,0.1,0,0.1-0.1c0.3-0.1,0.7-0.2,1-0.2c0.5,0,1,0,1.4,0.2c0.1,0.1,0.3,0.1,0.4,0.1c0.2,0,0.4-0.1,0.6-0.2
					c0.2-0.1,0.4-0.1,0.6-0.2c0.5-0.1,0.8-0.1,1.2-0.2c1.1-0.1,2.1,0.1,3,0.4c0.8,0.3,1.3,1,1.6,1.5c0.3,0.6,0.4,1.1,0.4,1.4l0,0
					l0,0c-0.1,0.5-0.3,1-0.6,1.4c0.7-0.3,1.4-0.7,2.1-1.1c0.5-0.3,3.1-1.8,3.1-1.8S152.5,61.1,151.1,61.7z M141.9,63.2
					c1-0.1,2.8-0.7,4-1.7c0.9-0.8,3.4-3.7,1-3.9c-0.8,0-1.2,0.1-1.7,0.5C144.2,59,141.9,63.1,141.9,63.2z"/>
				<path class="st4" d="M160.1,56.8c0.8-0.3,2.2-1.2,3-1.5c0.9-0.3,1.9,0,2.4,0.8c0.4,0.6,0.7,1.2,0.7,1.9c0,0.1,0,0.2-0.1,0.3
					c-0.4,0.9-3.8,7.2-3.7,7.3c0.7-0.3,7-3.8,7-3.8s-6.1,4.9-6.5,5.1c-1,0.4-2.1,0.3-3.1-0.4c-0.9-0.6-1-1-0.8-1.9
					c0.2-1.1,1-2,1.7-2.9c0.7-1,1.4-2.1,2.1-3.1c0,0-0.1-0.1-0.2-0.2c-4.4,0.6-6.7,5.5-7.6,6.7c-0.1,0.2-0.6,1.1-3.2,0.8
					c-0.1,0-0.8-0.5-0.8-0.6c0.1-0.4,0.1-0.6,0.1-0.6c4.6-7.7,7.6-12.9,12.8-20.3c0.7-0.8,1.4-0.7,2,0.3c0.2,0.3,0.4,0.6,0.5,0.9
					c0.2,0.4,0.3,0.8,0,1.2C165.1,49,160.7,55.7,160.1,56.8z"/>
				<path class="st4" d="M173.4,57.2c-0.8,1.3-1.6,2.6-2.4,3.9c-0.2,0.4-1.4,2.3-2.4,3.5c0.6-0.2,1.3-0.6,1.8-1c0.5-0.3,1-0.7,1.5-1
					c0.2-0.2,0.4-0.3,0.6-0.5c0.2-0.1,0.3-0.2,0.4-0.3c0-0.1-1.8,1.9-2.3,2.3c-0.4,0.3-0.8,0.6-1.2,0.9c-0.7,0.3-1.5,0.6-2.2,0.8
					c-0.7,0.2-1.7-0.4-1.8-1c-0.2-0.6,0.5-2.3,0.8-2.7c0.7-1,2.9-4.4,3.4-5.1c0.3-0.4,0.5-0.8,0.9-1c0.6-0.4,1.4-0.2,1.9,0.4
					C172.7,56.5,173.1,56.8,173.4,57.2z M174.4,55.3c-0.7,0.1-1.4,0.3-2,0.2c-0.5-0.1-1.7-0.8-1.9-1.5c0-0.1,0.2-0.4,0.3-0.4
					c1-0.2,1.9-0.3,2.9-0.4c0.1,0,0.3,0,0.4,0c0,0,0.8,0.1,1.1,0.4c0.2,0.1,0.2,0.5,0.2,0.7C175.5,54.5,174.9,55.2,174.4,55.3z
					 M173.4,57.2L173.4,57.2L173.4,57.2z"/>
				<path class="st4" d="M186.4,59.1c-1.2,0.7-3,0.5-4.3,0.3c1.1-1.3,1.5-1.8,1.6-2.5c-1.4,0.4-3.6,1.9-5.1,3.4l0,0
					c-1.1,1-2.4,2.6-2.6,3.1c1,0.9,10.9-1.7,12.1-1.5l0,0c-0.7,0.3-9.3,3.1-9.9,3.3c-0.8,0.3-1.8,0.3-2.7,0.1
					c-1.1-0.2-2-0.7-2.6-1.6c-0.1-0.2-0.2-0.5-0.3-0.8c-0.2-2.5,5.1-6.2,6.5-7.3c0.9-0.5,3.6-1.7,5.9-1.4c0.8,0.1,0.8,0.9,1.1,1.5
					c0.1,0.2,0.4,0.3,0.8,0.4C187.3,56.4,187.2,58.7,186.4,59.1z"/>
				<path class="st4" d="M201.4,59.8c0.2,0.1,0.3,0.1,0.6,0.2c0,0-4.4,3.8-6.7,4.5c-1.9,0.6-3.9,0.9-5.9,1.4
					c-0.9,0.2-1.8,0.3-2.6-0.1c-0.6-0.3-1.1-0.7-1.6-1.1c-0.3-0.3-0.1-0.6,0.4-0.8c1-0.2,1.9-0.4,2.9-0.5c1.8-0.2,3.4-0.8,5.1-1.7
					c-1.3-0.2-2.4-0.2-3.6-0.5c-0.6-0.1-1.2-0.5-1.8-0.8c-0.2-0.1-0.6-0.6-0.6-0.6S187,59,187.3,58c0.2-0.7,1-1.1,1.7-1.5
					c2.1-1.1,4.4-1.9,6.8-2.2c0.8-0.1,1.5,0.2,2.1,0.5c0.2,0.1,0.3,0.7,0.3,0.9s-0.3,0.5-0.6,0.6c-1.8,0.7-3.6,1.4-5.4,2.2
					c-0.1,0-0.2,0.1-0.4,0.3c0.9,0.2,1.7,0.3,2.5,0.5c1,0.2,1.9,0.6,2.6,1.2c0.5,0.4,0.6,1,0.5,1.5c0,0.2-0.1,0.3-0.1,0.6
					C197.7,62.3,200.5,60.7,201.4,59.8z"/>
			</g>
		</g>
	</g>
	<g>
		<g>
			<g id="XMLID_1_">
				<g>
					<path class="st5" d="M191.2,76.2c-0.3,0-0.6-0.1-0.8,0c-0.8,0.1-1.5,0.2-2.2,0.2c-0.6,0-1.2-0.1-1.8-0.1
						c-1.8,0.1-3.5,0.2-5.3,0.1c-1.7,0.1-3.4,0-5.1,0c-4.7,0.1-9.4,0.2-14.2,0.3c-3.3,0.2-29.6,2.7-32.9,2.9c-2,0.1-4,0.4-5.9,0.6
						c-1.7,0.2-3.5,0.4-5.2,0.5c-0.6,0.1-1.2,0.1-2,0.2c-1,0.2-2,0.3-2.9,0.5c-0.6,0.1-1.3-0.1-1.7,0c-1.4,0.7-2.7,0.5-4.1,0.7
						c-2.1,0.4-4.3,0.8-6.4,1.2c-1.5,0.3-3,0.6-4.5,0.8c-0.3,0.1-0.8,0.1-1.1,0.1c-0.8,0.2-1.7,0.5-2.6,0.7
						c-1.2,0.2-2.6,0.4-3.9,0.6c-1,0.2-2,0.3-3,0.6c-1,0.2-1.9,0.4-2.9,0.6c-0.3,0.1-0.7,0.2-1.1,0.3c-0.8,0.2-1.7,0.2-2.6,0.5
						c-0.5,0.1-1.1,0.3-1.8,0c0.6-0.3,0.9-0.5,1.4-0.8c0,0,0-0.2,0.1-0.4c0.3,0.2,0.6,0.4,0.7,0.6c0.3-0.4,0.4-0.7,0.6-1.2
						c-0.3,0-0.6-0.1-0.8-0.1c0.4-0.2,0.8-0.8,1-0.1c0.3,0.4,0.3,0.7,0.4,1c1.1-0.2,0.7-1.1,1.2-1.6c0.1,0.4,0.2,0.7,0.4,0.9
						c0.3-0.3,0.4-0.7,0.7-0.7c0.3-0.3,0.8-0.2,1.2-0.4c1.1-0.1,2-0.4,3-0.6c-0.1-0.2-0.2-0.4-0.3-0.5c0.8-0.5,1.3,0,1.7,0.4
						c0.2-0.6,0.3-1.2,1-0.5c0.1,0,0.3,0.1,0.5,0.1c0-0.2,0-0.3,0-0.6c0.4,0,0.9-0.1,1.2,0.1c0.5,0.3,0.9-0.1,1.2-0.5
						c0.2,0,0.4-0.1,0.5-0.2c0.1,0.2,0.1,0.3,0.2,0.7c0.3-0.3,0.7-0.5,0.9-0.7c0.5,0,0.9,0.1,1.4,0.3c0.2-0.8,0.2-0.8,0.6-0.5
						c0.3-0.2,0.4-0.4,0.7-0.4c0.6-0.1,1.1-0.2,1.6-0.2c0.6,0,0.9,0.1,1.4,0.2c-0.1,0,0-0.1-0.1-0.2c0.3-0.2,0.4-0.5,0.6-0.6
						c0.8-0.1,1.7-0.2,2.6-0.4c0.3,0,0.5,0.1,0.8,0.1c0.3-0.2,0.4-0.3,0.7-0.4c0.9-0.2,2-0.5,2.9-0.6c0.6,0,1.6-0.7,1.8,0.2
						c0.3-0.2,0.6-0.5,0.9-0.7c0.1-0.1,0.3,0.4,0.6,0.5c0.2-0.1,0.5-0.3,0.8-0.5c0.1-0.1,0.4-0.1,0.4,0c0.4,0.5,1.1-0.1,1.6,0.2
						c0.1-0.3,0-0.4-0.1-0.6c0.6,0,1.2-0.6,1.6,0.2c0,0,0.4,0,0.5,0c0.2-0.8,1-0.6,1.5-0.8c0.3,0,1.1-0.4,0.9,0.3
						c0,0,0.3,0.1,0.4,0.1c0.2-0.2,0.2-0.5,0.2-0.5c1,0.1,2.1-0.8,2.9-0.1c0.4-0.2,0.8-0.3,1.1-0.4c0.9-0.1,1.7-0.1,2.5-0.3
						c1.5-0.2,2.8-0.3,4.2-0.4c0.6-0.1,1.1-0.3,1.6-0.4c0.8,0.1,24.6-2.2,25.3-2.4c0.4-0.1,0.9,0.2,1.2,0.2c0.8-0.1,1.7-0.4,2.4-0.1
						c0.3,0.1,0.7-0.1,1.2-0.3c0.6,0.3,0.6,0.4,1.5-0.1c0.1-0.1,0.3-0.1,0.4-0.1c1,0.4,2.1,0.2,3.2,0.1c1.5,0,3.1-0.2,4.6-0.3
						c0.5-0.1,1.1,0,1.5,0c0.9,0,1.8-0.2,2.6-0.1c3.2-0.1,6.5-0.1,9.7,0.1c2.3,0.1,4.6,0.3,6.9,0.5c0.8,0.1,0.8,0.4,0.4,0.9
						C191.6,75.5,191.5,75.8,191.2,76.2C191.3,76.1,191.3,76.1,191.2,76.2z M77.4,86.1c0.5-0.1,0.9-0.2,1.4-0.4c0,0,0,0.1,0.1,0.2
						c-0.5,0.1-0.9,0.3-1.5,0.4C77.4,86.2,77.4,86.2,77.4,86.1z M86.3,84.3c-1,0.2-1.9,0.5-2.9,0.6c0,0-0.1-0.1-0.1-0.2
						c0.9-0.3,2-0.4,2.9-0.6C86.3,84.2,86.3,84.2,86.3,84.3z"/>
				</g>
			</g>
			<g>
				<g>
					<g>
						<path class="st5" d="M113,47.9c-1.1,0.8-2.1,1.7-3.2,2.5c-0.7,0.5-1.5,0.9-2.1,1.4c-0.8,0.6-1.7,1-2.5,1.8
							c-0.7,0.8-5.8,5.5-6.5,6.2c-1.1,1.1-4.1,4.4-4.5,4.9c-0.6,0.8-1.2,1.6-1.8,2.3c-0.2,0.3-0.4,0.5-0.7,0.8
							c-1,1.5-2.1,3.1-3.2,4.7c-0.5,0.8-1,1.7-1.6,2.7c1.4-0.1,2.5-0.9,3.5-1.5c4-2.3,7.8-4.9,10.8-9c-1.5,0.4-2.4-0.4-3.5-1.5
							c0.8-0.5,1.5-1.1,2.3-1.5c1.8-0.9,3.6-1.8,5.4-2.6c0.4-0.2,1-0.2,1.3,0c0.5,0.4,1.2,0.7,1.5,1.4s0.3,0.9-0.3,1.3
							c-0.1,0.1-0.2,0.4-0.1,0.5c0.3,0.4,0.4,0.8,0.2,1.2c-0.2,0.4-0.5,0.8-0.8,1.2c-0.4,0.4-0.8,0.9-1,1.6c-0.2,0.6-1.7,5-1.9,6.6
							c-0.1,1-0.5,1.9-0.7,2.8c-0.1,0.4-0.2,0.9-0.3,1.3c-0.1,0.4-0.3,0.9-0.5,1.4c-0.2,0.4-0.5,0.8-0.8,1.2c-0.3,0.6-0.6,1.2-1,1.9
							c-0.1-0.1-0.1-0.1-0.2-0.2c-0.1,0.1,0,0.2-0.1,0.2c-0.2,0.3-0.1,0.9-0.7,0.7c0,0-0.2,0.3-0.2,0.4h-0.1c0-0.6,0-1.2,0.1-1.7
							c0.2-1.6,0.5-3.1,0.8-4.7c0.2-1.1,0.3-2.1,0.5-3.2c0.1-0.7,0.2-1.3,0.3-2c-0.4,0.3-0.7,0.5-1,0.8c-0.8,0.6-9.1,5.6-9.8,6.1
							c-0.5,0.3-1.2,0.5-1.7,0.7c-0.3,0.1-0.7,0.1-1,0.3c-0.5,0.2-0.9,0.6-1.3,0.8c-1.7,0.6-3.1-0.2-3.7-2c-0.1-0.2-0.3-0.4-0.4-0.6
							c0-0.1,0-0.2,0-0.2c0.2-0.4,0.7-0.9,0.7-1.2c0-0.5,0.2-0.9,0.5-1.3c0.2-0.3,0.3-0.6,0.5-0.9C84.4,72,90,63,90.3,62.6
							c0.5-0.7,1-1.3,1.5-2c0.4-0.5,0.9-1.1,1.4-1.6c0.2-0.3,9.4-9.1,10.2-9.7c0.3-0.3,5.9-4.4,6.4-4.8c0.8-0.6,1.7-1.3,2.5-1.9
							c0.3-0.2,0.6-0.4,0.9-0.6h0.1c0.4,0.1,0.9,0.2,1.2,0.4c0.7,0.5,1.2,1.2,1.7,1.7c0,0.3,0,0.6,0,1C115.2,46.1,114.1,47,113,47.9
							z"/>
						<path class="st5" d="M123.9,61.3c0,0-7.6,6.4-8.7,7.4c-0.6,0.5-1.4,0.9-2.1,0.8c-0.8,0-1.4-0.9-1.2-1.7
							c0.4-1.7,1.4-3.3,2.4-4.8c0.4-0.7,1.2-2.2,1.6-3c-0.6,0-1.4,0.1-1.8,0.8c-0.8,1.6-3.1,5.8-4.2,7.4c-0.2,0.3-0.3,0.5-0.5,0.8
							c-1.2,1.8-3.7,1.7-3.7,1.7s-0.1,0-0.2,0.1c0.4-0.6,0.7-1.3,1-1.9c0.8-1.8,3.2-6.3,4.2-8.2c-0.8-0.1-1.4-0.3-1.8-1
							c-0.2-0.2-0.3-0.4-0.2-0.7c0-0.2,0.4-0.5,0.5-0.5c3.3-0.4,6.5-1,9.8-2c1.2-0.4,2.3-0.2,3.1,0.6c-0.2,0.2-0.4,0.5-0.6,0.6
							c-0.9,0.7-1.5,1.4-2,2.3c-0.7,1.2-2.3,3.8-3,4.9c-0.1,0.1-0.2,0.3-0.1,0.4c0.2,0.1,4.5-2.6,6.5-4
							C123.1,61.5,123.5,61.5,123.9,61.3z"/>
						<path class="st5" d="M138.2,61.2c0,0.2,0,0.3,0,0.4c0,0-4.3,3.7-5.7,3.5c-1-0.1-1.2-1.3-1.2-1.9c-1.2,1.3-2.4,2.4-3.1,2.9
							c-0.6,0.4-1.2,0.9-1.8,1.3c-0.8,0.4-1.7,0.6-2.6,0.5c-1.1-0.1-2-0.5-2.8-1.3c-0.2-0.2-0.3-0.5-0.4-0.7
							c-0.5-2.4,4.2-6.9,5.5-8.1c0.8-0.7,3.4-2.2,5.6-2.2c0.8,0,0.9,0.8,1.3,1.3c0.1,0.1,0.1,0.1,0.1,0.1c0.3,0.3,0.9,0.9,0.9,2
							c0,0.2,0,0.5-0.1,0.7c0,0,0,0.1-0.1,0.1c-0.3,1.4-0.8,4.1-0.7,4.3C133.2,64.5,138.2,61.2,138.2,61.2z M130.9,58.2
							c0,0-1.6-0.2-2.8,0.7s-7,6.5-3.6,6.1C126,64.8,130.9,59.5,130.9,58.2z"/>
						<path class="st5" d="M150.3,60.9c-0.2,0.1-0.4,0.1-0.5,0.2c-0.7,0.9-1.6,1.7-2.2,2c-0.8,0.5-4.4,1.8-6.5,1.9
							c-0.4,0-1,0-1.2-0.1c0,0-0.1,0-0.2,0c-0.3,0-0.9,0.2-1.7,1.6c-0.2,0.3-0.8,1.3-1.6,2.4c-1.3,2-2.8,4.4-3.1,5c0,0,0,0-0.1,0.1
							c0,0.1-0.1,0.3-0.2,0.3l-0.1,0.1c-0.2,0.2-0.4,0.4-0.7,0.4l0,0c-0.4,0-0.7,0-1.3-0.2c-0.3-0.1-0.7-0.3-1-0.5
							c-0.5-0.4-0.6-1-0.3-1.5c0.3-0.4,1.6-2.6,3.2-5.1c2.2-3.4,4.7-7.2,5.1-7.7c0.4-0.5,0.8-1.2,1.2-1.8c0.2-0.3,0.4-0.6,0.6-0.9
							c0.5-0.8,0.7-1.2,1.2-2.1c0,0,0.1,0,0.1-0.1c0.3-0.1,0.7-0.2,1-0.2c0.5,0,1,0,1.4,0.2c0.1,0.1,0.3,0.1,0.4,0.1
							c0.2,0,0.4-0.1,0.6-0.2c0.2-0.1,0.4-0.1,0.6-0.2c0.5-0.1,0.8-0.1,1.2-0.2c1.1-0.1,2.1,0.1,3,0.4c0.8,0.3,1.3,1,1.6,1.5
							c0.3,0.6,0.4,1.1,0.4,1.4l0,0l0,0c-0.1,0.5-0.3,1-0.6,1.4c0.7-0.3,1.4-0.7,2.1-1.1c0.5-0.3,3.1-1.8,3.1-1.8
							S151.8,60.2,150.3,60.9z M141.1,62.3c1-0.1,2.8-0.7,4-1.7c0.9-0.8,3.4-3.7,1-3.9c-0.8,0-1.2,0.1-1.7,0.5
							C143.4,58.1,141.1,62.3,141.1,62.3z"/>
						<path class="st5" d="M159.3,55.9c0.8-0.3,2.2-1.2,3-1.5c0.9-0.3,1.9,0,2.4,0.8c0.4,0.6,0.7,1.2,0.7,1.9c0,0.1,0,0.2-0.1,0.3
							c-0.4,0.9-3.8,7.2-3.7,7.3c0.7-0.3,7-3.8,7-3.8s-6.1,4.9-6.5,5.1c-1,0.4-2.1,0.3-3.1-0.4c-0.9-0.6-1-1-0.8-1.9
							c0.2-1.1,1-2,1.7-2.9c0.7-1,1.4-2.1,2.1-3.1c0,0-0.1-0.1-0.2-0.2c-4.4,0.6-6.7,5.5-7.6,6.7c-0.1,0.2-0.6,1.1-3.2,0.8
							c-0.1,0-0.8-0.5-0.8-0.6c0.1-0.4,0.1-0.6,0.1-0.6c4.6-7.7,7.6-12.9,12.8-20.3c0.7-0.8,1.4-0.7,2,0.3c0.2,0.3,0.4,0.6,0.5,0.9
							c0.2,0.4,0.3,0.8,0,1.2C164.3,48.1,159.9,54.9,159.3,55.9z"/>
						<path class="st5" d="M172.7,56.3c-0.8,1.3-1.6,2.6-2.4,3.9c-0.2,0.4-1.4,2.3-2.4,3.5c0.6-0.2,1.3-0.6,1.8-1
							c0.5-0.3,1-0.7,1.5-1c0.2-0.2,0.4-0.3,0.6-0.5c0.2-0.1,0.3-0.2,0.4-0.3c0-0.1-1.8,1.9-2.3,2.3c-0.4,0.3-0.8,0.6-1.2,0.9
							c-0.7,0.3-1.5,0.6-2.2,0.8c-0.7,0.2-1.7-0.4-1.8-1c-0.2-0.6,0.5-2.3,0.8-2.7c0.7-1,2.9-4.4,3.4-5.1c0.3-0.4,0.5-0.8,0.9-1
							c0.6-0.4,1.4-0.2,1.9,0.4C171.9,55.7,172.3,56,172.7,56.3z M173.6,54.4c-0.7,0.1-1.4,0.3-2,0.2c-0.5-0.1-1.7-0.8-1.9-1.5
							c0-0.1,0.2-0.4,0.3-0.4c1-0.2,1.9-0.3,2.9-0.4c0.1,0,0.3,0,0.4,0c0,0,0.8,0.1,1.1,0.4c0.2,0.1,0.2,0.5,0.2,0.7
							C174.7,53.7,174.1,54.3,173.6,54.4z M172.7,56.3L172.7,56.3L172.7,56.3z"/>
						<path class="st5" d="M185.7,58.2c-1.2,0.7-3,0.5-4.3,0.3c1.1-1.3,1.5-1.8,1.6-2.5c-1.4,0.4-3.6,1.9-5.1,3.4l0,0
							c-1.1,1-2.4,2.6-2.6,3.1c1,0.9,10.9-1.7,12.1-1.5l0,0c-0.7,0.3-9.3,3.1-9.9,3.3c-0.8,0.3-1.8,0.3-2.7,0.1
							c-1.1-0.2-2-0.7-2.6-1.6c-0.1-0.2-0.2-0.5-0.3-0.8c-0.2-2.5,5.1-6.2,6.5-7.3c0.9-0.5,3.6-1.7,5.9-1.4c0.8,0.1,0.8,0.9,1.1,1.5
							c0.1,0.2,0.4,0.3,0.8,0.4C186.6,55.6,186.4,57.8,185.7,58.2z"/>
						<path class="st5" d="M200.6,58.9c0.2,0.1,0.3,0.1,0.6,0.2c0,0-4.4,3.8-6.7,4.5c-1.9,0.6-3.9,0.9-5.9,1.4
							c-0.9,0.2-1.8,0.3-2.6-0.1c-0.6-0.3-1.1-0.7-1.6-1.1c-0.3-0.3-0.1-0.6,0.4-0.8c1-0.2,1.9-0.4,2.9-0.5c1.8-0.2,3.4-0.8,5.1-1.7
							c-1.3-0.2-2.4-0.2-3.6-0.5c-0.6-0.1-1.2-0.5-1.8-0.8c-0.2-0.1-0.6-0.6-0.6-0.6s-0.6-0.8-0.3-1.8c0.2-0.7,1-1.1,1.7-1.5
							c2.1-1.1,4.4-1.9,6.8-2.2c0.8-0.1,1.5,0.2,2.1,0.5c0.2,0.1,0.3,0.7,0.3,0.9s-0.3,0.5-0.6,0.6c-1.8,0.7-3.6,1.4-5.4,2.2
							c-0.1,0-0.2,0.1-0.4,0.3c0.9,0.2,1.7,0.3,2.5,0.5c1,0.2,1.9,0.6,2.6,1.2c0.5,0.4,0.6,1,0.5,1.5c0,0.2-0.1,0.3-0.1,0.6
							C197,61.4,199.7,59.8,200.6,58.9z"/>
					</g>
				</g>
			</g>
		</g>
	</g>
</g>
</svg>
