<?xml version="1.0" encoding="utf-8"?>
<!-- Generator: Adobe Illustrator 24.2.3, SVG Export Plug-In . SVG Version: 6.00 Build 0)  -->
<svg version="1.1" id="Layer_1" xmlns="http://www.w3.org/2000/svg" xmlns:xlink="http://www.w3.org/1999/xlink" x="0px" y="0px"
	 viewBox="0 0 283 108.8" style="enable-background:new 0 0 283 108.8;" xml:space="preserve">
<style type="text/css">
	.st0{fill:#240E28;}
	.st1{fill:none;stroke:#D8247C;stroke-linecap:round;stroke-linejoin:round;stroke-miterlimit:10;}
	.st2{fill:#FFFFFF;}
	.st3{fill:#3B1068;}
	.st4{fill:#25A9F0;}
</style>
<rect class="st0" width="283" height="108.8"/>
<line class="st1" x1="12.3" y1="57.2" x2="266" y2="57.2"/>
<polygon class="st0" points="102.8,60.5 118,47.2 122.8,54.9 117.7,59.9 "/>
<polygon class="st0" points="162.5,54.9 160.2,61.2 171.1,60.2 174.5,54.9 "/>
<polygon class="st0" points="249.2,54.9 248.4,59.3 260.3,59.3 260.3,54.9 "/>
<polygon class="st0" points="17.5,53.3 16.3,59.3 27.2,59.3 27.2,54.3 "/>
<g>
	<path class="st2" d="M23.6,23.7h6l6.4,10.7l10.5-10.7h6.3l-5.2,29.5h-6.9L43.9,35l-9.4,9.5l-6-9.9l-3.3,25.6h-6.9L23.6,23.7z"/>
	<path class="st2" d="M66.3,23.7h6.8l5.6,29.5H72l-0.8-4.6H60l-2.4,4.6h-7.4L66.3,23.7z M63.2,42.4h6.9l-1.7-9.9L63.2,42.4z"/>
	<path class="st2" d="M82.7,53.2l4-22.9h-7.9l1.2-6.5h22.8l-1.1,6.5h-8l-4,22.9H82.7z"/>
	<path class="st2" d="M108.4,53.2l4-22.9h-7.9l1.2-6.5h22.8l-1.1,6.5h-8l-4,22.9H108.4z"/>
	<path class="st2" d="M141.4,23.7h11.9c1.6,0,3,0.2,4.2,0.7c1.2,0.5,2.2,1.1,3,2c0.8,0.8,1.4,1.8,1.7,3c0.3,1.1,0.4,2.4,0.1,3.7
		c-0.2,1.2-0.7,2.3-1.4,3.2c-0.7,0.9-1.5,1.6-2.6,2.2c1,0.7,1.7,1.7,2.1,2.8c0.4,1.1,0.5,2.6,0.2,4.3c-0.5,2.5-1.7,4.4-3.7,5.7
		c-2,1.3-4.7,2-8.1,2h-12.8L141.4,23.7z M145.1,41.3l-1,5.7h5c1.4,0,2.5-0.2,3.2-0.7s1.1-1.1,1.3-2c0.2-0.9,0-1.6-0.6-2.2
		c-0.6-0.6-1.6-0.8-3.1-0.8H145.1z M147.2,29.8l-0.9,5.2h5.2c1.3,0,2.3-0.2,2.9-0.7c0.6-0.5,0.9-1,1.1-1.7c0.2-0.9,0-1.5-0.5-2.1
		c-0.5-0.5-1.4-0.8-2.6-0.8H147.2z"/>
	<path class="st2" d="M176.4,23.7h6.8l5.6,29.5H182l-0.8-4.6H170l-2.4,4.6h-7.4L176.4,23.7z M173.3,42.4h6.9l-1.7-9.9L173.3,42.4z"
		/>
	<path class="st2" d="M196.4,23.7h12.2c1.6,0,3.1,0.3,4.4,0.8s2.5,1.3,3.4,2.3c0.9,1,1.6,2.2,2,3.6c0.4,1.4,0.4,2.9,0.1,4.6
		c-0.3,1.7-1.1,3.3-2.3,4.7c-1.2,1.4-2.9,2.6-4.9,3.3l5.2,10.1h-7.9l-4.3-9h-4.4l-1.6,9h-7.1L196.4,23.7z M202.3,30l-1.4,7.9h4.8
		c1.5,0,2.7-0.3,3.6-0.9c1-0.6,1.5-1.5,1.8-2.7c0.1-0.6,0.1-1.1,0-1.7c-0.1-0.5-0.3-1-0.7-1.3c-0.3-0.4-0.8-0.7-1.4-0.9
		c-0.6-0.2-1.3-0.3-2.1-0.3H202.3z"/>
	<path class="st2" d="M223.9,23.7H236c1.6,0,3.1,0.3,4.4,0.8s2.5,1.3,3.4,2.3c0.9,1,1.6,2.2,2,3.6c0.4,1.4,0.4,2.9,0.1,4.6
		c-0.3,1.7-1.1,3.3-2.3,4.7c-1.2,1.4-2.9,2.6-4.9,3.3l5.2,10.1h-7.9l-4.3-9h-4.4l-1.6,9h-7.1L223.9,23.7z M229.8,30l-1.4,7.9h4.8
		c1.5,0,2.7-0.3,3.6-0.9c1-0.6,1.5-1.5,1.8-2.7c0.1-0.6,0.1-1.1,0-1.7c-0.1-0.5-0.3-1-0.7-1.3c-0.3-0.4-0.8-0.7-1.4-0.9
		c-0.6-0.2-1.3-0.3-2.1-0.3H229.8z"/>
	<path class="st2" d="M253.4,40l-6.5-16.3h7.2l4,10.3l7.5-10.3h8L260.3,41l-3.1,20.2h-7L253.4,40z"/>
</g>
<polygon class="st0" points="163.7,54.9 168.2,48.6 172.6,48.6 175,53.8 "/>
<polygon class="st0" points="108.2,54.9 118,47.2 122.8,50.2 125.1,53.8 "/>
<g>
	<path id="XMLID_1_" class="st3" d="M197.7,84.2c-0.3,0-0.6-0.1-0.8,0c-0.8,0.1-1.5,0.2-2.2,0.2c-0.6,0-1.2-0.1-1.8-0.1
		c-1.8,0.1-3.5,0.2-5.3,0.1c-1.7,0.1-3.4,0-5.1,0c-4.7,0.1-9.4,0.2-14.2,0.3c-3.3,0.2-29.6,2.7-32.9,2.9c-2,0.1-4,0.4-5.9,0.6
		c-1.7,0.2-3.5,0.4-5.2,0.5c-0.6,0.1-1.2,0.1-2,0.2c-1,0.2-2,0.3-2.9,0.5c-0.6,0.1-1.3-0.1-1.7,0c-1.4,0.7-2.7,0.5-4.1,0.7
		c-2.1,0.4-4.3,0.8-6.4,1.2c-1.5,0.3-3,0.6-4.5,0.8c-0.3,0.1-0.8,0.1-1.1,0.1c-0.8,0.2-1.7,0.5-2.6,0.7c-1.2,0.2-2.6,0.4-3.9,0.6
		c-1,0.2-2,0.3-3,0.6c-1,0.2-1.9,0.4-2.9,0.6c-0.3,0.1-0.7,0.2-1.1,0.3c-0.8,0.2-1.7,0.2-2.6,0.5c-0.5,0.1-1.1,0.3-1.8,0
		c0.6-0.3,0.9-0.5,1.4-0.8c0,0,0-0.2,0.1-0.4c0.3,0.2,0.6,0.4,0.7,0.6c0.3-0.4,0.4-0.7,0.6-1.2c-0.3,0-0.6-0.1-0.8-0.1
		c0.4-0.2,0.8-0.8,1-0.1c0.3,0.4,0.3,0.7,0.4,1c1.1-0.2,0.7-1.1,1.2-1.6c0.1,0.4,0.2,0.7,0.4,0.9c0.3-0.3,0.4-0.7,0.7-0.7
		c0.3-0.3,0.8-0.2,1.2-0.4c1.1-0.1,2-0.4,3-0.6c-0.1-0.2-0.2-0.4-0.3-0.5c0.8-0.5,1.3,0,1.7,0.4c0.2-0.6,0.3-1.2,1-0.5
		c0.1,0,0.3,0.1,0.5,0.1c0-0.2,0-0.3,0-0.6c0.4,0,0.9-0.1,1.2,0.1c0.5,0.3,0.9-0.1,1.2-0.5c0.2,0,0.4-0.1,0.5-0.2
		c0.1,0.2,0.1,0.3,0.2,0.7c0.3-0.3,0.7-0.5,0.9-0.7c0.5,0,0.9,0.1,1.4,0.3c0.2-0.8,0.2-0.8,0.6-0.5c0.3-0.2,0.4-0.4,0.7-0.4
		c0.6-0.1,1.1-0.2,1.6-0.2c0.6,0,0.9,0.1,1.4,0.2c-0.1,0,0-0.1-0.1-0.2c0.3-0.2,0.4-0.5,0.6-0.6c0.8-0.1,1.7-0.2,2.6-0.4
		c0.3,0,0.5,0.1,0.8,0.1c0.3-0.2,0.4-0.3,0.7-0.4c0.9-0.2,2-0.5,2.9-0.6c0.6,0,1.6-0.7,1.8,0.2c0.3-0.2,0.6-0.5,0.9-0.7
		c0.1-0.1,0.3,0.4,0.6,0.5c0.2-0.1,0.5-0.3,0.8-0.5c0.1-0.1,0.4-0.1,0.4,0c0.4,0.5,1.1-0.1,1.6,0.2c0.1-0.3,0-0.4-0.1-0.6
		c0.6,0,1.2-0.6,1.6,0.2c0,0,0.4,0,0.5,0c0.2-0.8,1-0.6,1.5-0.8c0.3,0,1.1-0.4,0.9,0.3c0,0,0.3,0.1,0.4,0.1c0.2-0.2,0.2-0.5,0.2-0.5
		c1,0.1,2.1-0.8,2.9-0.1c0.4-0.2,0.8-0.3,1.1-0.4c0.9-0.1,1.7-0.1,2.5-0.3c1.5-0.2,2.8-0.3,4.2-0.4c0.6-0.1,1.1-0.3,1.6-0.4
		c0.8,0.1,24.6-2.2,25.3-2.4c0.4-0.1,0.9,0.2,1.2,0.2c0.8-0.1,1.7-0.4,2.4-0.1c0.3,0.1,0.7-0.1,1.2-0.3c0.6,0.3,0.6,0.4,1.5-0.1
		c0.1-0.1,0.3-0.1,0.4-0.1c1,0.4,2.1,0.2,3.2,0.1c1.5,0,3.1-0.2,4.6-0.3c0.5-0.1,1.1,0,1.5,0c0.9,0,1.8-0.2,2.6-0.1
		c3.2-0.1,6.5-0.1,9.7,0.1c2.3,0.1,4.6,0.3,6.9,0.5c0.8,0.1,0.8,0.4,0.4,0.9C198.1,83.6,197.9,83.9,197.7,84.2
		C197.7,84.2,197.7,84.2,197.7,84.2z M83.8,94.2c0.5-0.1,0.9-0.2,1.4-0.4c0,0,0,0.1,0.1,0.2c-0.5,0.1-0.9,0.3-1.5,0.4
		C83.9,94.3,83.8,94.3,83.8,94.2z M92.8,92.4c-1,0.2-1.9,0.5-2.9,0.6c0,0-0.1-0.1-0.1-0.2c0.9-0.3,2-0.4,2.9-0.6
		C92.8,92.3,92.8,92.3,92.8,92.4z"/>
	<g>
		<g>
			<path class="st3" d="M119.4,55.9c-1.1,0.8-2.1,1.7-3.2,2.5c-0.7,0.5-1.5,0.9-2.1,1.4c-0.8,0.6-1.7,1-2.5,1.8
				c-0.7,0.8-5.8,5.5-6.5,6.2c-1.1,1.1-4.1,4.4-4.5,4.9c-0.6,0.8-1.2,1.6-1.8,2.3c-0.2,0.3-0.4,0.5-0.7,0.8c-1,1.5-2.1,3.1-3.2,4.7
				c-0.5,0.8-1,1.7-1.6,2.7c1.4-0.1,2.5-0.9,3.5-1.5c4-2.3,7.8-4.9,10.8-9c-1.5,0.4-2.4-0.4-3.5-1.5c0.8-0.5,1.5-1.1,2.3-1.5
				c1.8-0.9,3.6-1.8,5.4-2.6c0.4-0.2,1-0.2,1.3,0c0.5,0.4,1.2,0.7,1.5,1.4c0.3,0.7,0.3,0.9-0.3,1.3c-0.1,0.1-0.2,0.4-0.1,0.5
				c0.3,0.4,0.4,0.8,0.2,1.2c-0.2,0.4-0.5,0.8-0.8,1.2c-0.4,0.4-0.8,0.9-1,1.6c-0.2,0.6-1.7,5-1.9,6.6c-0.1,1-0.5,1.9-0.7,2.8
				c-0.1,0.4-0.2,0.9-0.3,1.3c-0.1,0.4-0.3,0.9-0.5,1.4c-0.2,0.4-0.5,0.8-0.8,1.2c-0.3,0.6-0.6,1.2-1,1.9c-0.1-0.1-0.1-0.1-0.2-0.2
				c-0.1,0.1,0,0.2-0.1,0.2c-0.2,0.3-0.1,0.9-0.7,0.7c0,0-0.2,0.3-0.2,0.4c0,0-0.1,0-0.1,0c0-0.6,0-1.2,0.1-1.7
				c0.2-1.6,0.5-3.1,0.8-4.7c0.2-1.1,0.3-2.1,0.5-3.2c0.1-0.7,0.2-1.3,0.3-2c-0.4,0.3-0.7,0.5-1,0.8c-0.8,0.6-9.1,5.6-9.8,6.1
				c-0.5,0.3-1.2,0.5-1.7,0.7c-0.3,0.1-0.7,0.1-1,0.3c-0.5,0.2-0.9,0.6-1.3,0.8c-1.7,0.6-3.1-0.2-3.7-2c-0.1-0.2-0.3-0.4-0.4-0.6
				c0-0.1,0-0.2,0-0.2c0.2-0.4,0.7-0.9,0.7-1.2c0-0.5,0.2-0.9,0.5-1.3c0.2-0.3,0.3-0.6,0.5-0.9c0.5-1.1,6.1-10.1,6.4-10.5
				c0.5-0.7,1-1.3,1.5-2c0.4-0.5,0.9-1.1,1.4-1.6c0.2-0.3,9.4-9.1,10.2-9.7c0.3-0.3,5.9-4.4,6.4-4.8c0.8-0.6,1.7-1.3,2.5-1.9
				c0.3-0.2,0.6-0.4,0.9-0.6c0,0,0.1,0,0.1,0c0.4,0.1,0.9,0.2,1.2,0.4c0.7,0.5,1.2,1.2,1.7,1.7c0,0.3,0,0.6,0,1
				C121.6,54.2,120.5,55.1,119.4,55.9z"/>
			<path class="st3" d="M130.4,69.4c0,0-7.6,6.4-8.7,7.4c-0.6,0.5-1.4,0.9-2.1,0.8c-0.8,0-1.4-0.9-1.2-1.7c0.4-1.7,1.4-3.3,2.4-4.8
				c0.4-0.7,1.2-2.2,1.6-3c-0.6,0-1.4,0.1-1.8,0.8c-0.8,1.6-3.1,5.8-4.2,7.4c-0.2,0.3-0.3,0.5-0.5,0.8c-1.2,1.8-3.7,1.7-3.7,1.7
				c0,0-0.1,0-0.2,0.1c0.4-0.6,0.7-1.3,1-1.9c0.8-1.8,3.2-6.3,4.2-8.2c-0.8-0.1-1.4-0.3-1.8-1c-0.2-0.2-0.3-0.4-0.2-0.7
				c0-0.2,0.4-0.5,0.5-0.5c3.3-0.4,6.5-1,9.8-2c1.2-0.4,2.3-0.2,3.1,0.6c-0.2,0.2-0.4,0.5-0.6,0.6c-0.9,0.7-1.5,1.4-2,2.3
				c-0.7,1.2-2.3,3.8-3,4.9c-0.1,0.1-0.2,0.3-0.1,0.4c0.2,0.1,4.5-2.6,6.5-4C129.6,69.6,129.9,69.6,130.4,69.4z"/>
			<path class="st3" d="M144.7,69.3c0,0.2,0,0.3,0,0.4c0,0-4.3,3.7-5.7,3.5c-1-0.1-1.2-1.3-1.2-1.9c-1.2,1.3-2.4,2.4-3.1,2.9
				c-0.6,0.4-1.2,0.9-1.8,1.3c-0.8,0.4-1.7,0.6-2.6,0.5c-1.1-0.1-2-0.5-2.8-1.3c-0.2-0.2-0.3-0.5-0.4-0.7c-0.5-2.4,4.2-6.9,5.5-8.1
				c0.8-0.7,3.4-2.2,5.6-2.2c0.8,0,0.9,0.8,1.3,1.3c0.1,0.1,0.1,0.1,0.1,0.1c0.3,0.3,0.9,0.9,0.9,2c0,0.2,0,0.5-0.1,0.7
				c0,0,0,0.1-0.1,0.1c-0.3,1.4-0.8,4.1-0.7,4.3C139.7,72.5,144.7,69.3,144.7,69.3z M137.4,66.3c0,0-1.6-0.2-2.8,0.7
				c-1.2,0.9-7,6.5-3.6,6.1C132.4,72.9,137.3,67.6,137.4,66.3z"/>
			<path class="st3" d="M156.7,68.9c-0.2,0.1-0.4,0.1-0.5,0.2c-0.7,0.9-1.6,1.7-2.2,2c-0.8,0.5-4.4,1.8-6.5,1.9c-0.4,0-1,0-1.2-0.1
				c0,0-0.1,0-0.2,0c-0.3,0-0.9,0.2-1.7,1.6c-0.2,0.3-0.8,1.3-1.6,2.4c-1.3,2-2.8,4.4-3.1,5c0,0,0,0-0.1,0.1c0,0.1-0.1,0.3-0.2,0.3
				c0,0-0.1,0.1-0.1,0.1c-0.2,0.2-0.4,0.4-0.7,0.4c0,0,0,0,0,0c-0.4,0-0.7,0-1.3-0.2c-0.3-0.1-0.7-0.3-1-0.5c-0.5-0.4-0.6-1-0.3-1.5
				c0.3-0.4,1.6-2.6,3.2-5.1c2.2-3.4,4.7-7.2,5.1-7.7c0.4-0.5,0.8-1.2,1.2-1.8c0.2-0.3,0.4-0.6,0.6-0.9c0.5-0.8,0.7-1.2,1.2-2.1
				c0,0,0.1,0,0.1-0.1c0.3-0.1,0.7-0.2,1-0.2c0.5,0,1,0,1.4,0.2c0.1,0.1,0.3,0.1,0.4,0.1c0.2,0,0.4-0.1,0.6-0.2
				c0.2-0.1,0.4-0.1,0.6-0.2c0.5-0.1,0.8-0.1,1.2-0.2c1.1-0.1,2.1,0.1,3,0.4c0.8,0.3,1.3,1,1.6,1.5c0.3,0.6,0.4,1.1,0.4,1.4
				c0,0,0,0,0,0c0,0,0,0,0,0c-0.1,0.5-0.3,1-0.6,1.4c0.7-0.3,1.4-0.7,2.1-1.1c0.5-0.3,3.1-1.8,3.1-1.8S158.2,68.3,156.7,68.9z
				 M147.6,70.4c1-0.1,2.8-0.7,4-1.7c0.9-0.8,3.4-3.7,1-3.9c-0.8,0-1.2,0.1-1.7,0.5C149.9,66.2,147.6,70.3,147.6,70.4z"/>
			<path class="st3" d="M165.7,64c0.8-0.3,2.2-1.2,3-1.5c0.9-0.3,1.9,0,2.4,0.8c0.4,0.6,0.7,1.2,0.7,1.9c0,0.1,0,0.2-0.1,0.3
				c-0.4,0.9-3.8,7.2-3.7,7.3c0.7-0.3,7-3.8,7-3.8s-6.1,4.9-6.5,5.1c-1,0.4-2.1,0.3-3.1-0.4c-0.9-0.6-1-1-0.8-1.9
				c0.2-1.1,1-2,1.7-2.9c0.7-1,1.4-2.1,2.1-3.1c0,0-0.1-0.1-0.2-0.2c-4.4,0.6-6.7,5.5-7.6,6.7c-0.1,0.2-0.6,1.1-3.2,0.8
				c-0.1,0-0.8-0.5-0.8-0.6c0.1-0.4,0.1-0.6,0.1-0.6c4.6-7.7,7.6-12.9,12.8-20.3c0.7-0.8,1.4-0.7,2,0.3c0.2,0.3,0.4,0.6,0.5,0.9
				c0.2,0.4,0.3,0.8,0,1.2C170.8,56.2,166.4,62.9,165.7,64z"/>
			<path class="st3" d="M179.1,64.4c-0.8,1.3-1.6,2.6-2.4,3.9c-0.2,0.4-1.4,2.3-2.4,3.5c0.6-0.2,1.3-0.6,1.8-1c0.5-0.3,1-0.7,1.5-1
				c0.2-0.2,0.4-0.3,0.6-0.5c0.2-0.1,0.3-0.2,0.4-0.3c0-0.1-1.8,1.9-2.3,2.3c-0.4,0.3-0.8,0.6-1.2,0.9c-0.7,0.3-1.5,0.6-2.2,0.8
				c-0.7,0.2-1.7-0.4-1.8-1c-0.2-0.6,0.5-2.3,0.8-2.7c0.7-1,2.9-4.4,3.4-5.1c0.3-0.4,0.5-0.8,0.9-1c0.6-0.4,1.4-0.2,1.9,0.4
				C178.4,63.7,178.7,64,179.1,64.4z M180.1,62.5c-0.7,0.1-1.4,0.3-2,0.2c-0.5-0.1-1.7-0.8-1.9-1.5c0-0.1,0.2-0.4,0.3-0.4
				c1-0.2,1.9-0.3,2.9-0.4c0.1,0,0.3,0,0.4,0c0,0,0.8,0.1,1.1,0.4c0.2,0.1,0.2,0.5,0.2,0.7C181.2,61.7,180.6,62.4,180.1,62.5z
				 M179.1,64.4C179.1,64.4,179.1,64.4,179.1,64.4C179.1,64.4,179.1,64.4,179.1,64.4z M179.1,64.4"/>
			<path class="st3" d="M192.1,66.3c-1.2,0.7-3,0.5-4.3,0.3c1.1-1.3,1.5-1.8,1.6-2.5c-1.4,0.4-3.6,1.9-5.1,3.4c0,0,0,0,0,0
				c-1.1,1-2.4,2.6-2.6,3.1c1,0.9,10.9-1.7,12.1-1.5c0,0,0,0,0,0c-0.7,0.3-9.3,3.1-9.9,3.3c-0.8,0.3-1.8,0.3-2.7,0.1
				c-1.1-0.2-2-0.7-2.6-1.6c-0.1-0.2-0.2-0.5-0.3-0.8c-0.2-2.5,5.1-6.2,6.5-7.3c0.9-0.5,3.6-1.7,5.9-1.4c0.8,0.1,0.8,0.9,1.1,1.5
				c0.1,0.2,0.4,0.3,0.8,0.4C193,63.6,192.9,65.9,192.1,66.3z"/>
			<path class="st3" d="M207.1,67c0.2,0.1,0.3,0.1,0.6,0.2c0,0-4.4,3.8-6.7,4.5c-1.9,0.6-3.9,0.9-5.9,1.4c-0.9,0.2-1.8,0.3-2.6-0.1
				c-0.6-0.3-1.1-0.7-1.6-1.1c-0.3-0.3-0.1-0.6,0.4-0.8c1-0.2,1.9-0.4,2.9-0.5c1.8-0.2,3.4-0.8,5.1-1.7c-1.3-0.2-2.4-0.2-3.6-0.5
				c-0.6-0.1-1.2-0.5-1.8-0.8c-0.2-0.1-0.6-0.6-0.6-0.6s-0.6-0.8-0.3-1.8c0.2-0.7,1-1.1,1.7-1.5c2.1-1.1,4.4-1.9,6.8-2.2
				c0.8-0.1,1.5,0.2,2.1,0.5c0.2,0.1,0.3,0.7,0.3,0.9c0,0.2-0.3,0.5-0.6,0.6c-1.8,0.7-3.6,1.4-5.4,2.2c-0.1,0-0.2,0.1-0.4,0.3
				c0.9,0.2,1.7,0.3,2.5,0.5c1,0.2,1.9,0.6,2.6,1.2c0.5,0.4,0.6,1,0.5,1.5c0,0.2-0.1,0.3-0.1,0.6C203.4,69.5,206.1,67.9,207.1,67z"
				/>
		</g>
	</g>
</g>
<g>
	<g>
		<g id="XMLID_37_">
			<g>
				<path class="st4" d="M196.9,83.4c-0.3,0-0.6-0.1-0.8,0c-0.8,0.1-1.5,0.2-2.2,0.2c-0.6,0-1.2-0.1-1.8-0.1
					c-1.8,0.1-3.5,0.2-5.3,0.1c-1.7,0.1-3.4,0-5.1,0c-4.7,0.1-9.4,0.2-14.2,0.3c-3.3,0.2-29.6,2.7-32.9,2.9c-2,0.1-4,0.4-5.9,0.6
					c-1.7,0.2-3.5,0.4-5.2,0.5c-0.6,0.1-1.2,0.1-2,0.2c-1,0.2-2,0.3-2.9,0.5c-0.6,0.1-1.3-0.1-1.7,0c-1.4,0.7-2.7,0.5-4.1,0.7
					c-2.1,0.4-4.3,0.8-6.4,1.2c-1.5,0.3-3,0.6-4.5,0.8c-0.3,0.1-0.8,0.1-1.1,0.1c-0.8,0.2-1.7,0.5-2.6,0.7c-1.2,0.2-2.6,0.4-3.9,0.6
					c-1,0.2-2,0.3-3,0.6c-1,0.2-1.9,0.4-2.9,0.6c-0.3,0.1-0.7,0.2-1.1,0.3c-0.8,0.2-1.7,0.2-2.6,0.5c-0.5,0.1-1.1,0.3-1.8,0
					c0.6-0.3,0.9-0.5,1.4-0.8c0,0,0-0.2,0.1-0.4c0.3,0.2,0.6,0.4,0.7,0.6c0.3-0.4,0.4-0.7,0.6-1.2c-0.3,0-0.6-0.1-0.8-0.1
					c0.4-0.2,0.8-0.8,1-0.1c0.3,0.4,0.3,0.7,0.4,1c1.1-0.2,0.7-1.1,1.2-1.6c0.1,0.4,0.2,0.7,0.4,0.9c0.3-0.3,0.4-0.7,0.7-0.7
					c0.3-0.3,0.8-0.2,1.2-0.4c1.1-0.1,2-0.4,3-0.6c-0.1-0.2-0.2-0.4-0.3-0.5c0.8-0.5,1.3,0,1.7,0.4c0.2-0.6,0.3-1.2,1-0.5
					c0.1,0,0.3,0.1,0.5,0.1c0-0.2,0-0.3,0-0.6c0.4,0,0.9-0.1,1.2,0.1c0.5,0.3,0.9-0.1,1.2-0.5c0.2,0,0.4-0.1,0.5-0.2
					c0.1,0.2,0.1,0.3,0.2,0.7c0.3-0.3,0.7-0.5,0.9-0.7c0.5,0,0.9,0.1,1.4,0.3c0.2-0.8,0.2-0.8,0.6-0.5c0.3-0.2,0.4-0.4,0.7-0.4
					c0.6-0.1,1.1-0.2,1.6-0.2c0.6,0,0.9,0.1,1.4,0.2c-0.1,0,0-0.1-0.1-0.2c0.3-0.2,0.4-0.5,0.6-0.6c0.8-0.1,1.7-0.2,2.6-0.4
					c0.3,0,0.5,0.1,0.8,0.1c0.3-0.2,0.4-0.3,0.7-0.4c0.9-0.2,2-0.5,2.9-0.6c0.6,0,1.6-0.7,1.8,0.2c0.3-0.2,0.6-0.5,0.9-0.7
					c0.1-0.1,0.3,0.4,0.6,0.5c0.2-0.1,0.5-0.3,0.8-0.5c0.1-0.1,0.4-0.1,0.4,0c0.4,0.5,1.1-0.1,1.6,0.2c0.1-0.3,0-0.4-0.1-0.6
					c0.6,0,1.2-0.6,1.6,0.2c0,0,0.4,0,0.5,0c0.2-0.8,1-0.6,1.5-0.8c0.3,0,1.1-0.4,0.9,0.3c0,0,0.3,0.1,0.4,0.1
					c0.2-0.2,0.2-0.5,0.2-0.5c1,0.1,2.1-0.8,2.9-0.1c0.4-0.2,0.8-0.3,1.1-0.4c0.9-0.1,1.7-0.1,2.5-0.3c1.5-0.2,2.8-0.3,4.2-0.4
					c0.6-0.1,1.1-0.3,1.6-0.4c0.8,0.1,24.6-2.2,25.3-2.4c0.4-0.1,0.9,0.2,1.2,0.2c0.8-0.1,1.7-0.4,2.4-0.1c0.3,0.1,0.7-0.1,1.2-0.3
					c0.6,0.3,0.6,0.4,1.5-0.1c0.1-0.1,0.3-0.1,0.4-0.1c1,0.4,2.1,0.2,3.2,0.1c1.5,0,3.1-0.2,4.6-0.3c0.5-0.1,1.1,0,1.5,0
					c0.9,0,1.8-0.2,2.6-0.1c3.2-0.1,6.5-0.1,9.7,0.1c2.3,0.1,4.6,0.3,6.9,0.5c0.8,0.1,0.8,0.4,0.4,0.9
					C197.3,82.7,197.1,83,196.9,83.4C196.9,83.3,196.9,83.3,196.9,83.4z M83,93.3c0.5-0.1,0.9-0.2,1.4-0.4c0,0,0,0.1,0.1,0.2
					c-0.5,0.1-0.9,0.3-1.5,0.4C83.1,93.4,83,93.4,83,93.3z M92,91.5c-1,0.2-1.9,0.5-2.9,0.6c0,0-0.1-0.1-0.1-0.2
					c0.9-0.3,2-0.4,2.9-0.6C92,91.4,92,91.4,92,91.5z"/>
			</g>
		</g>
		<g>
			<g>
				<g>
					<path class="st4" d="M118.6,55.1c-1.1,0.8-2.1,1.7-3.2,2.5c-0.7,0.5-1.5,0.9-2.1,1.4c-0.8,0.6-1.7,1-2.5,1.8
						c-0.7,0.8-5.8,5.5-6.5,6.2c-1.1,1.1-4.1,4.4-4.5,4.9c-0.6,0.8-1.2,1.6-1.8,2.3c-0.2,0.3-0.4,0.5-0.7,0.8
						c-1,1.5-2.1,3.1-3.2,4.7c-0.5,0.8-1,1.7-1.6,2.7c1.4-0.1,2.5-0.9,3.5-1.5c4-2.3,7.8-4.9,10.8-9c-1.5,0.4-2.4-0.4-3.5-1.5
						c0.8-0.5,1.5-1.1,2.3-1.5c1.8-0.9,3.6-1.8,5.4-2.6c0.4-0.2,1-0.2,1.3,0c0.5,0.4,1.2,0.7,1.5,1.4c0.3,0.7,0.3,0.9-0.3,1.3
						c-0.1,0.1-0.2,0.4-0.1,0.5c0.3,0.4,0.4,0.8,0.2,1.2c-0.2,0.4-0.5,0.8-0.8,1.2c-0.4,0.4-0.8,0.9-1,1.6c-0.2,0.6-1.7,5-1.9,6.6
						c-0.1,1-0.5,1.9-0.7,2.8c-0.1,0.4-0.2,0.9-0.3,1.3c-0.1,0.4-0.3,0.9-0.5,1.4c-0.2,0.4-0.5,0.8-0.8,1.2c-0.3,0.6-0.6,1.2-1,1.9
						c-0.1-0.1-0.1-0.1-0.2-0.2c-0.1,0.1,0,0.2-0.1,0.2c-0.2,0.3-0.1,0.9-0.7,0.7c0,0-0.2,0.3-0.2,0.4c0,0-0.1,0-0.1,0
						c0-0.6,0-1.2,0.1-1.7c0.2-1.6,0.5-3.1,0.8-4.7c0.2-1.1,0.3-2.1,0.5-3.2c0.1-0.7,0.2-1.3,0.3-2c-0.4,0.3-0.7,0.5-1,0.8
						c-0.8,0.6-9.1,5.6-9.8,6.1c-0.5,0.3-1.2,0.5-1.7,0.7c-0.3,0.1-0.7,0.1-1,0.3c-0.5,0.2-0.9,0.6-1.3,0.8c-1.7,0.6-3.1-0.2-3.7-2
						c-0.1-0.2-0.3-0.4-0.4-0.6c0-0.1,0-0.2,0-0.2c0.2-0.4,0.7-0.9,0.7-1.2c0-0.5,0.2-0.9,0.5-1.3c0.2-0.3,0.3-0.6,0.5-0.9
						c0.5-1.1,6.1-10.1,6.4-10.5c0.5-0.7,1-1.3,1.5-2c0.4-0.5,0.9-1.1,1.4-1.6c0.2-0.3,9.4-9.1,10.2-9.7c0.3-0.3,5.9-4.4,6.4-4.8
						c0.8-0.6,1.7-1.3,2.5-1.9c0.3-0.2,0.6-0.4,0.9-0.6c0,0,0.1,0,0.1,0c0.4,0.1,0.9,0.2,1.2,0.4c0.7,0.5,1.2,1.2,1.7,1.7
						c0,0.3,0,0.6,0,1C120.9,53.3,119.7,54.2,118.6,55.1z"/>
					<path class="st4" d="M129.6,68.5c0,0-7.6,6.4-8.7,7.4c-0.6,0.5-1.4,0.9-2.1,0.8c-0.8,0-1.4-0.9-1.2-1.7
						c0.4-1.7,1.4-3.3,2.4-4.8c0.4-0.7,1.2-2.2,1.6-3c-0.6,0-1.4,0.1-1.8,0.8c-0.8,1.6-3.1,5.8-4.2,7.4c-0.2,0.3-0.3,0.5-0.5,0.8
						c-1.2,1.8-3.7,1.7-3.7,1.7c0,0-0.1,0-0.2,0.1c0.4-0.6,0.7-1.3,1-1.9c0.8-1.8,3.2-6.3,4.2-8.2c-0.8-0.1-1.4-0.3-1.8-1
						c-0.2-0.2-0.3-0.4-0.2-0.7c0-0.2,0.4-0.5,0.5-0.5c3.3-0.4,6.5-1,9.8-2c1.2-0.4,2.3-0.2,3.1,0.6c-0.2,0.2-0.4,0.5-0.6,0.6
						c-0.9,0.7-1.5,1.4-2,2.3c-0.7,1.2-2.3,3.8-3,4.9c-0.1,0.1-0.2,0.3-0.1,0.4c0.2,0.1,4.5-2.6,6.5-4
						C128.8,68.7,129.2,68.7,129.6,68.5z"/>
					<path class="st4" d="M143.9,68.4c0,0.2,0,0.3,0,0.4c0,0-4.3,3.7-5.7,3.5c-1-0.1-1.2-1.3-1.2-1.9c-1.2,1.3-2.4,2.4-3.1,2.9
						c-0.6,0.4-1.2,0.9-1.8,1.3c-0.8,0.4-1.7,0.6-2.6,0.5c-1.1-0.1-2-0.5-2.8-1.3c-0.2-0.2-0.3-0.5-0.4-0.7
						c-0.5-2.4,4.2-6.9,5.5-8.1c0.8-0.7,3.4-2.2,5.6-2.2c0.8,0,0.9,0.8,1.3,1.3c0.1,0.1,0.1,0.1,0.1,0.1c0.3,0.3,0.9,0.9,0.9,2
						c0,0.2,0,0.5-0.1,0.7c0,0,0,0.1-0.1,0.1c-0.3,1.4-0.8,4.1-0.7,4.3C138.9,71.7,143.9,68.4,143.9,68.4z M136.6,65.4
						c0,0-1.6-0.2-2.8,0.7c-1.2,0.9-7,6.5-3.6,6.1C131.7,72,136.5,66.7,136.6,65.4z"/>
					<path class="st4" d="M156,68.1c-0.2,0.1-0.4,0.1-0.5,0.2c-0.7,0.9-1.6,1.7-2.2,2c-0.8,0.5-4.4,1.8-6.5,1.9c-0.4,0-1,0-1.2-0.1
						c0,0-0.1,0-0.2,0c-0.3,0-0.9,0.2-1.7,1.6c-0.2,0.3-0.8,1.3-1.6,2.4c-1.3,2-2.8,4.4-3.1,5c0,0,0,0-0.1,0.1
						c0,0.1-0.1,0.3-0.2,0.3c0,0-0.1,0.1-0.1,0.1c-0.2,0.2-0.4,0.4-0.7,0.4c0,0,0,0,0,0c-0.4,0-0.7,0-1.3-0.2
						c-0.3-0.1-0.7-0.3-1-0.5c-0.5-0.4-0.6-1-0.3-1.5c0.3-0.4,1.6-2.6,3.2-5.1c2.2-3.4,4.7-7.2,5.1-7.7c0.4-0.5,0.8-1.2,1.2-1.8
						c0.2-0.3,0.4-0.6,0.6-0.9c0.5-0.8,0.7-1.2,1.2-2.1c0,0,0.1,0,0.1-0.1c0.3-0.1,0.7-0.2,1-0.2c0.5,0,1,0,1.4,0.2
						c0.1,0.1,0.3,0.1,0.4,0.1c0.2,0,0.4-0.1,0.6-0.2c0.2-0.1,0.4-0.1,0.6-0.2c0.5-0.1,0.8-0.1,1.2-0.2c1.1-0.1,2.1,0.1,3,0.4
						c0.8,0.3,1.3,1,1.6,1.5c0.3,0.6,0.4,1.1,0.4,1.4c0,0,0,0,0,0c0,0,0,0,0,0c-0.1,0.5-0.3,1-0.6,1.4c0.7-0.3,1.4-0.7,2.1-1.1
						c0.5-0.3,3.1-1.8,3.1-1.8S157.5,67.4,156,68.1z M146.8,69.5c1-0.1,2.8-0.7,4-1.7c0.9-0.8,3.4-3.7,1-3.9c-0.8,0-1.2,0.1-1.7,0.5
						C149.1,65.3,146.8,69.5,146.8,69.5z"/>
					<path class="st4" d="M165,63.1c0.8-0.3,2.2-1.2,3-1.5c0.9-0.3,1.9,0,2.4,0.8c0.4,0.6,0.7,1.2,0.7,1.9c0,0.1,0,0.2-0.1,0.3
						c-0.4,0.9-3.8,7.2-3.7,7.3c0.7-0.3,7-3.8,7-3.8s-6.1,4.9-6.5,5.1c-1,0.4-2.1,0.3-3.1-0.4c-0.9-0.6-1-1-0.8-1.9
						c0.2-1.1,1-2,1.7-2.9c0.7-1,1.4-2.1,2.1-3.1c0,0-0.1-0.1-0.2-0.2c-4.4,0.6-6.7,5.5-7.6,6.7c-0.1,0.2-0.6,1.1-3.2,0.8
						c-0.1,0-0.8-0.5-0.8-0.6c0.1-0.4,0.1-0.6,0.1-0.6c4.6-7.7,7.6-12.9,12.8-20.3c0.7-0.8,1.4-0.7,2,0.3c0.2,0.3,0.4,0.6,0.5,0.9
						c0.2,0.4,0.3,0.8,0,1.2C170,55.3,165.6,62.1,165,63.1z"/>
					<path class="st4" d="M178.3,63.5c-0.8,1.3-1.6,2.6-2.4,3.9c-0.2,0.4-1.4,2.3-2.4,3.5c0.6-0.2,1.3-0.6,1.8-1
						c0.5-0.3,1-0.7,1.5-1c0.2-0.2,0.4-0.3,0.6-0.5c0.2-0.1,0.3-0.2,0.4-0.3c0-0.1-1.8,1.9-2.3,2.3c-0.4,0.3-0.8,0.6-1.2,0.9
						c-0.7,0.3-1.5,0.6-2.2,0.8c-0.7,0.2-1.7-0.4-1.8-1c-0.2-0.6,0.5-2.3,0.8-2.7c0.7-1,2.9-4.4,3.4-5.1c0.3-0.4,0.5-0.8,0.9-1
						c0.6-0.4,1.4-0.2,1.9,0.4C177.6,62.9,178,63.2,178.3,63.5z M179.3,61.6c-0.7,0.1-1.4,0.3-2,0.2c-0.5-0.1-1.7-0.8-1.9-1.5
						c0-0.1,0.2-0.4,0.3-0.4c1-0.2,1.9-0.3,2.9-0.4c0.1,0,0.3,0,0.4,0c0,0,0.8,0.1,1.1,0.4c0.2,0.1,0.2,0.5,0.2,0.7
						C180.4,60.9,179.8,61.5,179.3,61.6z M178.3,63.5C178.3,63.5,178.3,63.5,178.3,63.5C178.3,63.5,178.3,63.5,178.3,63.5z
						 M178.3,63.5"/>
					<path class="st4" d="M191.4,65.4c-1.2,0.7-3,0.5-4.3,0.3c1.1-1.3,1.5-1.8,1.6-2.5c-1.4,0.4-3.6,1.9-5.1,3.4c0,0,0,0,0,0
						c-1.1,1-2.4,2.6-2.6,3.1c1,0.9,10.9-1.7,12.1-1.5c0,0,0,0,0,0c-0.7,0.3-9.3,3.1-9.9,3.3c-0.8,0.3-1.8,0.3-2.7,0.1
						c-1.1-0.2-2-0.7-2.6-1.6c-0.1-0.2-0.2-0.5-0.3-0.8c-0.2-2.5,5.1-6.2,6.5-7.3c0.9-0.5,3.6-1.7,5.9-1.4c0.8,0.1,0.8,0.9,1.1,1.5
						c0.1,0.2,0.4,0.3,0.8,0.4C192.3,62.8,192.1,65,191.4,65.4z"/>
					<path class="st4" d="M206.3,66.1c0.2,0.1,0.3,0.1,0.6,0.2c0,0-4.4,3.8-6.7,4.5c-1.9,0.6-3.9,0.9-5.9,1.4
						c-0.9,0.2-1.8,0.3-2.6-0.1c-0.6-0.3-1.1-0.7-1.6-1.1c-0.3-0.3-0.1-0.6,0.4-0.8c1-0.2,1.9-0.4,2.9-0.5c1.8-0.2,3.4-0.8,5.1-1.7
						c-1.3-0.2-2.4-0.2-3.6-0.5c-0.6-0.1-1.2-0.5-1.8-0.8c-0.2-0.1-0.6-0.6-0.6-0.6s-0.6-0.8-0.3-1.8c0.2-0.7,1-1.1,1.7-1.5
						c2.1-1.1,4.4-1.9,6.8-2.2c0.8-0.1,1.5,0.2,2.1,0.5c0.2,0.1,0.3,0.7,0.3,0.9c0,0.2-0.3,0.5-0.6,0.6c-1.8,0.7-3.6,1.4-5.4,2.2
						c-0.1,0-0.2,0.1-0.4,0.3c0.9,0.2,1.7,0.3,2.5,0.5c1,0.2,1.9,0.6,2.6,1.2c0.5,0.4,0.6,1,0.5,1.5c0,0.2-0.1,0.3-0.1,0.6
						C202.6,68.6,205.4,67,206.3,66.1z"/>
				</g>
			</g>
		</g>
	</g>
</g>
</svg>
